<svg width="140" height="140" viewBox="0 0 140 140" fill="none" xmlns="http://www.w3.org/2000/svg">
<path d="M67.9921 93.9932C67.2119 93.7123 66.4875 93.2375 65.8187 92.5687L41.7437 68.4938C40.4062 67.1563 39.7642 65.5958 39.8177 63.8125C39.8712 62.0292 40.5132 60.4688 41.7437 59.1313C43.0812 57.7938 44.6706 57.0983 46.5119 57.0448C48.3532 56.9913 49.9404 57.631 51.2734 58.9641L63.8125 71.5031V23.6875C63.8125 21.7927 64.4545 20.2056 65.7385 18.926C67.0225 17.6465 68.6096 17.0045 70.5 17C72.3903 16.9956 73.9797 17.6376 75.2681 18.926C76.5566 20.2145 77.1964 21.8016 77.1874 23.6875V71.5031L89.7265 58.9641C91.064 57.6266 92.6534 56.9846 94.4947 57.0381C96.336 57.0916 97.9231 57.7893 99.2562 59.1313C100.482 60.4688 101.124 62.0292 101.182 63.8125C101.24 65.5958 100.598 67.1563 99.2562 68.4938L75.1812 92.5687C74.5124 93.2375 73.788 93.7123 73.0078 93.9932C72.2276 94.2741 71.3916 94.4123 70.5 94.4078C69.6083 94.4034 68.7724 94.2651 67.9921 93.9932ZM30.375 124C26.6969 124 23.5493 122.691 20.9322 120.074C18.3152 117.457 17.0045 114.308 17 110.625V97.25C17 95.3552 17.642 93.768 18.926 92.4885C20.21 91.209 21.7972 90.567 23.6875 90.5625C25.5778 90.558 27.1672 91.2 28.4557 92.4885C29.7441 93.777 30.3839 95.3641 30.375 97.25V110.625H110.625V97.25C110.625 95.3552 111.267 93.768 112.551 92.4885C113.835 91.209 115.422 90.567 117.312 90.5625C119.203 90.558 120.792 91.2 122.081 92.4885C123.369 93.777 124.009 95.3641 124 97.25V110.625C124 114.303 122.691 117.453 120.074 120.074C117.457 122.696 114.308 124.004 110.625 124H30.375Z" fill="#1E1E1E"/>
</svg>
