<svg width="140" height="140" viewBox="0 0 140 140" fill="none" xmlns="http://www.w3.org/2000/svg">
<path d="M102.331 21.525C104.956 20.4312 107.953 21.0437 109.966 23.0343L123.966 37.0343C125.278 38.3468 126.022 40.1187 126.022 41.9781C126.022 43.8375 125.278 45.6093 123.966 46.9218L109.966 60.9218C107.953 62.9343 104.956 63.525 102.331 62.4312C99.7062 61.3375 98 58.8218 98 56V49H91C88.7906 49 86.7125 50.0281 85.4 51.8L78.3125 61.25L69.5625 49.5906L74.2 43.4C78.1594 38.1062 84.3937 35 91 35H98V28C98 25.1781 99.7062 22.6187 102.331 21.525ZM47.6875 78.75L56.4375 90.4093L51.8 96.6C47.8406 101.894 41.6063 105 35 105H21C17.1281 105 14 101.872 14 98C14 94.1281 17.1281 91 21 91H35C37.2094 91 39.2875 89.9718 40.6 88.2L47.6875 78.75ZM109.944 116.944C107.931 118.956 104.934 119.547 102.309 118.453C99.6844 117.359 98 114.822 98 112V105H91C84.3937 105 78.1594 101.894 74.2 96.6L40.6 51.8C39.2875 50.0281 37.2094 49 35 49H21C17.1281 49 14 45.8718 14 42C14 38.1281 17.1281 35 21 35H35C41.6063 35 47.8406 38.1062 51.8 43.4L85.4 88.2C86.7125 89.9718 88.7906 91 91 91H98V84C98 81.1781 99.7062 78.6187 102.331 77.525C104.956 76.4312 107.953 77.0437 109.966 79.0343L123.966 93.0343C125.278 94.3468 126.022 96.1187 126.022 97.9781C126.022 99.8375 125.278 101.609 123.966 102.922L109.966 116.922L109.944 116.944Z" fill="#1E1E1E"/>
</svg>
